<svg xmlns="http://www.w3.org/2000/svg" version="1.1" xmlns:xlink="http://www.w3.org/1999/xlink" xmlns:svgjs="http://svgjs.dev/svgjs" width="308.7612359841165" height="304.915625" viewBox="0 0 2000 1999"><g transform="matrix(1,0,0,1,-0.431486880466764,-0.4312711370263287)"><svg viewBox="0 0 343 343" data-background-color="#ffffff" preserveAspectRatio="xMidYMid meet" height="1999" width="2000" xmlns="http://www.w3.org/2000/svg" xmlns:xlink="http://www.w3.org/1999/xlink"><g id="tight-bounds" transform="matrix(1,0,0,1,0.0740000000000407,0.07400000000001228)"><svg viewBox="0 0 342.85155851775386 342.85155851775386" height="342.85155851775386" width="342.85155851775386"><g><svg></svg></g><g><svg viewBox="0 0 342.85155851775386 342.85155851775386" height="342.85155851775386" width="342.85155851775386"><g><path d="M0 171.426c0-94.676 76.75-171.426 171.426-171.426 94.676 0 171.426 76.75 171.426 171.426 0 94.676-76.75 171.426-171.426 171.426-94.676 0-171.426-76.75-171.426-171.426zM171.426 337.294c91.607 0 165.869-74.262 165.868-165.868 0-91.607-74.262-165.869-165.868-165.869-91.607 0-165.869 74.262-165.869 165.869 0 91.607 74.262 165.869 165.869 165.868z" data-fill-palette-color="tertiary" fill="#000000" stroke="transparent"></path><ellipse rx="164.56874808852186" ry="164.56874808852186" cx="171.42577925887693" cy="171.42577925887693" fill="#000000" stroke="transparent" stroke-width="0" fill-opacity="1" data-fill-palette-color="tertiary"></ellipse></g><g transform="matrix(1,0,0,1,64.84655864529837,106.31008403512526)"><svg viewBox="0 0 213.1584412271571 130.23139044750334" height="130.23139044750334" width="213.1584412271571"><g><svg viewBox="0 0 213.1584412271571 130.23139044750334" height="130.23139044750334" width="213.1584412271571"><g><svg viewBox="0 0 213.1584412271571 130.23139044750334" height="130.23139044750334" width="213.1584412271571"><g id="textblocktransform"><svg viewBox="0 0 213.1584412271571 130.23139044750334" height="130.23139044750334" width="213.1584412271571" id="textblock"><g><svg viewBox="0 0 213.1584412271571 130.23139044750334" height="130.23139044750334" width="213.1584412271571"><g transform="matrix(1,0,0,1,0,0)"><svg width="213.1584412271571" viewBox="-0.09999999999999964 -38.82 187.04 107.94" height="130.23139044750334" data-palette-color="#ffffff"><svg></svg><svg></svg><g class="wordmark-text-0" data-fill-palette-color="quaternary" id="text-0"><path d="M3.96 0l1.58-9.3h-5.64c0.067-0.573 0.227-1.11 0.48-1.61 0.253-0.507 0.57-0.95 0.95-1.33 0.38-0.387 0.817-0.69 1.31-0.91 0.487-0.22 0.997-0.33 1.53-0.33v0h2.1l3.25-18.92c0.113-0.667 0.33-1.283 0.65-1.85 0.313-0.573 0.687-1.063 1.12-1.47 0.433-0.407 0.91-0.723 1.43-0.95 0.52-0.227 1.04-0.34 1.56-0.34v0h5.93c0.507 0 1.02 0.113 1.54 0.34 0.52 0.227 1 0.547 1.44 0.96 0.44 0.42 0.82 0.91 1.14 1.47 0.313 0.56 0.53 1.183 0.65 1.87v0l5.56 32.37h-5.83l-1.52-9.3h-11.98l-1.49 9.3zM11.87-13.48h10.66l-3.12-19.41h-4.47c-0.52 3.16-1.033 6.363-1.54 9.61-0.5 3.247-1.01 6.513-1.53 9.8zM37.77 0v-25.56h5.83v9.67l7.55-7.82c0.52-0.6 1.06-1.063 1.62-1.39 0.56-0.327 1.233-0.49 2.02-0.49v0c0.647 0 1.273 0.163 1.88 0.49 0.6 0.327 1.127 0.77 1.58 1.33 0.46 0.567 0.823 1.223 1.09 1.97 0.267 0.747 0.4 1.553 0.4 2.42v0 15.18h4.93c-0.06 0.587-0.217 1.133-0.47 1.64-0.253 0.5-0.573 0.943-0.96 1.33-0.38 0.38-0.813 0.68-1.3 0.9-0.487 0.22-1 0.33-1.54 0.33v0h-1.9c-0.653 0-1.26-0.163-1.82-0.49-0.567-0.327-1.057-0.77-1.47-1.33-0.413-0.56-0.743-1.213-0.99-1.96-0.24-0.753-0.36-1.56-0.36-2.42v0-14.84l-10.26 10.54v10.5zM66.33 0l10.26-27.03h5.86c-0.147 0.36-0.257 0.717-0.33 1.07-0.073 0.347-0.127 0.633-0.16 0.86v0c-0.053 0.607 0.043 1.153 0.29 1.64 0.247 0.487 0.577 0.953 0.99 1.4 0.413 0.447 0.893 0.89 1.44 1.33 0.547 0.44 1.103 0.903 1.67 1.39v0c0.653 0.527 1.313 1.127 1.98 1.8 0.667 0.673 1.27 1.413 1.81 2.22 0.533 0.807 0.967 1.66 1.3 2.56 0.333 0.907 0.483 1.847 0.45 2.82v0c-0.027 0.687-0.17 1.343-0.43 1.97-0.267 0.627-0.61 1.187-1.03 1.68-0.427 0.5-0.92 0.93-1.48 1.29-0.56 0.353-1.15 0.613-1.77 0.78v0h9.08c-0.227 0.633-0.497 1.207-0.81 1.72-0.32 0.513-0.68 0.957-1.08 1.33-0.4 0.373-0.833 0.66-1.3 0.86-0.473 0.207-0.963 0.31-1.47 0.31v0h-6.69c-0.747 0-1.37-0.117-1.87-0.35-0.493-0.24-0.883-0.553-1.17-0.94-0.28-0.393-0.473-0.847-0.58-1.36-0.107-0.513-0.137-1.047-0.09-1.6v0c0.52-0.067 1.033-0.203 1.54-0.41 0.507-0.213 0.957-0.52 1.35-0.92 0.4-0.4 0.737-0.9 1.01-1.5 0.267-0.6 0.433-1.323 0.5-2.17v0c0.06-0.667-0.007-1.293-0.2-1.88-0.193-0.587-0.453-1.14-0.78-1.66-0.327-0.52-0.7-1.017-1.12-1.49-0.427-0.473-0.843-0.93-1.25-1.37v0c-0.42-0.553-0.843-1.22-1.27-2-0.42-0.78-0.72-1.733-0.9-2.86v0l-7.72 20.51zM100 0v-38.82h5.83v16.04c0.46-0.88 1.027-1.563 1.7-2.05 0.673-0.487 1.41-0.73 2.21-0.73v0h7.35c0.633 0 1.23 0.163 1.79 0.49 0.567 0.327 1.06 0.77 1.48 1.33 0.427 0.56 0.76 1.213 1 1.96 0.247 0.753 0.37 1.56 0.37 2.42v0 15.19h5.22c-0.06 0.567-0.217 1.107-0.47 1.62-0.253 0.513-0.567 0.957-0.94 1.33-0.373 0.373-0.807 0.67-1.3 0.89-0.487 0.22-0.99 0.33-1.51 0.33v0h-2.17c-0.64 0-1.243-0.163-1.81-0.49-0.567-0.327-1.063-0.77-1.49-1.33-0.42-0.56-0.753-1.213-1-1.96-0.247-0.753-0.37-1.56-0.37-2.42v0-15.19h-10.06v21.39z" fill="#ffffff" fill-rule="nonzero" stroke="none" stroke-width="1" stroke-linecap="butt" stroke-linejoin="miter" stroke-miterlimit="10" stroke-dasharray="" stroke-dashoffset="0" font-family="none" font-weight="none" font-size="none" text-anchor="none" style="mix-blend-mode: normal" data-fill-palette-color="quaternary" opacity="1"></path><path d="M6.71 55.91v0c0.067-0.567 0.227-1.103 0.48-1.61 0.253-0.507 0.57-0.95 0.95-1.33 0.387-0.387 0.823-0.69 1.31-0.91 0.487-0.213 1-0.32 1.54-0.32v0h8.96v-5.94l-12.8-6.37c-0.973-0.487-1.753-1.227-2.34-2.22-0.587-0.993-0.88-2.23-0.88-3.71v0-8.4c0-0.86 0.117-1.67 0.35-2.43 0.24-0.76 0.567-1.42 0.98-1.98 0.413-0.56 0.897-1 1.45-1.32 0.553-0.313 1.15-0.47 1.79-0.47v0h13.5c0.633 0 1.227 0.157 1.78 0.47 0.553 0.32 1.037 0.76 1.45 1.32 0.413 0.56 0.743 1.22 0.99 1.98 0.247 0.76 0.37 1.57 0.37 2.43v0 7.23h-5.84v-9.26h-10.98v11.58l13.23 6.76c0.42 0.213 0.803 0.507 1.15 0.88 0.34 0.373 0.63 0.807 0.87 1.3 0.247 0.5 0.437 1.05 0.57 1.65 0.127 0.6 0.19 1.227 0.19 1.88v0 2.64c0 0.847-0.12 1.643-0.36 2.39-0.247 0.747-0.577 1.397-0.99 1.95-0.42 0.553-0.907 0.993-1.46 1.32-0.553 0.327-1.147 0.49-1.78 0.49v0zM38.48 24.44v0c-0.573 0-1.107-0.107-1.6-0.32-0.5-0.207-0.937-0.5-1.31-0.88-0.373-0.373-0.667-0.807-0.88-1.3-0.207-0.5-0.31-1.033-0.31-1.6v0c0-0.573 0.103-1.107 0.31-1.6 0.213-0.5 0.507-0.937 0.88-1.31 0.373-0.373 0.81-0.67 1.31-0.89 0.493-0.22 1.027-0.33 1.6-0.33v0c0.567 0 1.1 0.11 1.6 0.33 0.493 0.22 0.927 0.517 1.3 0.89 0.373 0.373 0.67 0.81 0.89 1.31 0.22 0.493 0.33 1.027 0.33 1.6v0c0 0.567-0.11 1.1-0.33 1.6-0.22 0.493-0.517 0.927-0.89 1.3-0.373 0.38-0.813 0.673-1.32 0.88-0.5 0.213-1.027 0.32-1.58 0.32zM35.62 49.71v-19.36h5.84v21.39h5.22c-0.047 0.567-0.197 1.107-0.45 1.62-0.253 0.513-0.57 0.957-0.95 1.33-0.387 0.373-0.823 0.67-1.31 0.89-0.487 0.22-1 0.33-1.54 0.33v0h-2.15c-0.633 0-1.233-0.163-1.8-0.49-0.573-0.327-1.07-0.77-1.49-1.33-0.427-0.56-0.76-1.213-1-1.96-0.247-0.753-0.37-1.56-0.37-2.42zM51.54 55.91v-25.56h5.83v9.67l7.55-7.82c0.52-0.6 1.06-1.063 1.62-1.39 0.56-0.327 1.23-0.49 2.01-0.49v0c0.653 0 1.28 0.163 1.88 0.49 0.607 0.327 1.137 0.77 1.59 1.33 0.46 0.567 0.823 1.223 1.09 1.97 0.267 0.747 0.4 1.553 0.4 2.42v0 15.18h4.93c-0.067 0.587-0.223 1.133-0.47 1.64-0.253 0.5-0.573 0.943-0.96 1.33-0.38 0.38-0.813 0.68-1.3 0.9-0.487 0.22-1 0.33-1.54 0.33v0h-1.9c-0.653 0-1.26-0.163-1.82-0.49-0.567-0.327-1.057-0.77-1.47-1.33-0.413-0.56-0.743-1.213-0.99-1.96-0.24-0.753-0.36-1.56-0.36-2.42v0-14.84l-10.26 10.54v10.5zM82.86 49.71v-13.16c0-0.86 0.123-1.667 0.37-2.42 0.24-0.747 0.57-1.4 0.99-1.96 0.413-0.56 0.903-1.003 1.47-1.33 0.573-0.327 1.177-0.49 1.81-0.49v0h17.09v21.39h5.15c-0.067 0.567-0.223 1.107-0.47 1.62-0.253 0.513-0.573 0.957-0.96 1.33-0.38 0.373-0.813 0.67-1.3 0.89-0.493 0.22-1.007 0.33-1.54 0.33v0h-0.88v6.96c0 0.86-0.123 1.67-0.37 2.43-0.24 0.753-0.573 1.41-1 1.97-0.42 0.567-0.907 1.017-1.46 1.35-0.553 0.333-1.147 0.5-1.78 0.5v0h-11.85v-4.23h10.62v-11.69c-0.467 0.847-1.043 1.51-1.73 1.99-0.68 0.48-1.397 0.72-2.15 0.72v0h-7.37c-0.633 0-1.237-0.163-1.81-0.49-0.567-0.327-1.057-0.77-1.47-1.33-0.42-0.56-0.75-1.213-0.99-1.96-0.247-0.753-0.37-1.56-0.37-2.42zM88.67 51.74h10.08v-17.22h-10.08zM113.99 55.91v-38.82h5.83v16.04c0.46-0.88 1.027-1.563 1.7-2.05 0.673-0.487 1.41-0.73 2.21-0.73v0h7.35c0.633 0 1.23 0.163 1.79 0.49 0.567 0.327 1.06 0.77 1.48 1.33 0.427 0.56 0.76 1.213 1 1.96 0.247 0.753 0.37 1.56 0.37 2.42v0 15.19h5.22c-0.067 0.567-0.223 1.107-0.47 1.62-0.253 0.513-0.567 0.957-0.94 1.33-0.38 0.373-0.813 0.67-1.3 0.89-0.487 0.22-0.99 0.33-1.51 0.33v0h-2.17c-0.64 0-1.243-0.163-1.81-0.49-0.573-0.327-1.07-0.77-1.49-1.33-0.42-0.56-0.753-1.213-1-1.96-0.247-0.753-0.37-1.56-0.37-2.42v0-15.19h-10.06v21.39zM145.12 49.78v-12.55c0-0.973 0.133-1.883 0.4-2.73 0.267-0.847 0.637-1.58 1.11-2.2 0.473-0.62 1.03-1.103 1.67-1.45 0.647-0.353 1.343-0.53 2.09-0.53v0h16.46v21.42h5.29c-0.06 0.567-0.217 1.107-0.47 1.62-0.253 0.513-0.57 0.957-0.95 1.33-0.387 0.373-0.823 0.67-1.31 0.89-0.487 0.22-1 0.33-1.54 0.33v0h-2.61c-0.8 0-1.557-0.273-2.27-0.82-0.72-0.547-1.313-1.283-1.78-2.21v0c-0.473 0.927-1.07 1.663-1.79 2.21-0.713 0.547-1.47 0.82-2.27 0.82v0h-7.39c-0.64 0-1.243-0.163-1.81-0.49-0.573-0.327-1.067-0.767-1.48-1.32-0.413-0.553-0.743-1.2-0.99-1.94-0.24-0.74-0.36-1.533-0.36-2.38zM150.93 51.74h10.11v-17.22h-10.11zM175.9 49.71v-32.64h5.84v34.67h5.2c-0.1 0.647-0.283 1.23-0.55 1.75-0.267 0.52-0.593 0.96-0.98 1.32-0.38 0.36-0.81 0.633-1.29 0.82-0.48 0.187-0.98 0.28-1.5 0.28v0h-2.05c-0.64 0-1.243-0.163-1.81-0.49-0.567-0.327-1.063-0.77-1.49-1.33-0.42-0.56-0.753-1.213-1-1.96-0.247-0.753-0.37-1.56-0.37-2.42z" fill="#ffffff" fill-rule="nonzero" stroke="none" stroke-width="1" stroke-linecap="butt" stroke-linejoin="miter" stroke-miterlimit="10" stroke-dasharray="" stroke-dashoffset="0" font-family="none" font-weight="none" font-size="none" text-anchor="none" style="mix-blend-mode: normal" data-fill-palette-color="quaternary" opacity="1"></path></g></svg></g></svg></g></svg></g></svg></g></svg></g></svg></g></svg></g><defs></defs></svg><rect width="342.85155851775386" height="342.85155851775386" fill="none" stroke="none" visibility="hidden"></rect></g></svg></g></svg>